<mxfile host="app.diagrams.net" agent="Mozilla/5.0 (Macintosh; Intel Mac OS X 10_15_7) AppleWebKit/605.1.15 (KHTML, like Gecko) Version/17.5 Safari/605.1.15" version="26.0.4">
  <diagram name="Page-1" id="k8qGRllSuCCMeSWJRuRN">
    <mxGraphModel dx="1035" dy="689" grid="1" gridSize="10" guides="1" tooltips="1" connect="1" arrows="1" fold="1" page="1" pageScale="1" pageWidth="850" pageHeight="1100" math="0" shadow="0">
      <root>
        <mxCell id="0" />
        <mxCell id="1" parent="0" />
        <mxCell id="Wy1gnbVzSQiRrtNqNRIT-1" value="Annotated Data" style="rounded=0;whiteSpace=wrap;html=1;" parent="1" vertex="1">
          <mxGeometry x="940" y="410" width="370" height="60" as="geometry" />
        </mxCell>
        <mxCell id="Wy1gnbVzSQiRrtNqNRIT-2" value="Not Annotated Data" style="rounded=0;whiteSpace=wrap;html=1;fillColor=#fff2cc;strokeColor=#d6b656;" parent="1" vertex="1">
          <mxGeometry x="1310" y="410" width="370" height="60" as="geometry" />
        </mxCell>
        <mxCell id="Wy1gnbVzSQiRrtNqNRIT-3" value="Train + Validation Data" style="rounded=0;whiteSpace=wrap;html=1;fillColor=#d5e8d4;strokeColor=#82b366;" parent="1" vertex="1">
          <mxGeometry x="940" y="530" width="280" height="60" as="geometry" />
        </mxCell>
        <mxCell id="Wy1gnbVzSQiRrtNqNRIT-4" value="Test Data" style="rounded=0;whiteSpace=wrap;html=1;fillColor=#dae8fc;strokeColor=#6c8ebf;" parent="1" vertex="1">
          <mxGeometry x="1220" y="530" width="90" height="60" as="geometry" />
        </mxCell>
        <mxCell id="Wy1gnbVzSQiRrtNqNRIT-5" value="" style="endArrow=none;dashed=1;html=1;dashPattern=1 3;strokeWidth=2;rounded=0;exitX=1;exitY=0;exitDx=0;exitDy=0;entryX=1;entryY=1;entryDx=0;entryDy=0;" parent="1" source="Wy1gnbVzSQiRrtNqNRIT-4" target="Wy1gnbVzSQiRrtNqNRIT-1" edge="1">
          <mxGeometry width="50" height="50" relative="1" as="geometry">
            <mxPoint x="1300" y="520" as="sourcePoint" />
            <mxPoint x="1310" y="460" as="targetPoint" />
          </mxGeometry>
        </mxCell>
        <mxCell id="Wy1gnbVzSQiRrtNqNRIT-6" value="" style="endArrow=none;dashed=1;html=1;dashPattern=1 3;strokeWidth=2;rounded=0;entryX=0;entryY=1;entryDx=0;entryDy=0;exitX=0;exitY=0;exitDx=0;exitDy=0;" parent="1" source="Wy1gnbVzSQiRrtNqNRIT-3" target="Wy1gnbVzSQiRrtNqNRIT-1" edge="1">
          <mxGeometry width="50" height="50" relative="1" as="geometry">
            <mxPoint x="910" y="530" as="sourcePoint" />
            <mxPoint x="939" y="470" as="targetPoint" />
          </mxGeometry>
        </mxCell>
        <mxCell id="Wy1gnbVzSQiRrtNqNRIT-7" value="Train" style="rounded=0;whiteSpace=wrap;html=1;fillColor=#f5f5f5;fontColor=#333333;strokeColor=#666666;" parent="1" vertex="1">
          <mxGeometry x="970" y="660" width="260" height="20" as="geometry" />
        </mxCell>
        <mxCell id="Wy1gnbVzSQiRrtNqNRIT-8" value="Validate" style="rounded=0;whiteSpace=wrap;html=1;fillColor=#ffe6cc;strokeColor=#d79b00;" parent="1" vertex="1">
          <mxGeometry x="970" y="660" width="50" height="20" as="geometry" />
        </mxCell>
        <mxCell id="Wy1gnbVzSQiRrtNqNRIT-9" value="" style="rounded=0;whiteSpace=wrap;html=1;fillColor=#f5f5f5;fontColor=#333333;strokeColor=#666666;" parent="1" vertex="1">
          <mxGeometry x="970" y="690" width="260" height="20" as="geometry" />
        </mxCell>
        <mxCell id="Wy1gnbVzSQiRrtNqNRIT-11" value="" style="rounded=0;whiteSpace=wrap;html=1;fillColor=#f5f5f5;fontColor=#333333;strokeColor=#666666;" parent="1" vertex="1">
          <mxGeometry x="970" y="720" width="260" height="20" as="geometry" />
        </mxCell>
        <mxCell id="Wy1gnbVzSQiRrtNqNRIT-12" value="" style="rounded=0;whiteSpace=wrap;html=1;fillColor=#f5f5f5;fontColor=#333333;strokeColor=#666666;" parent="1" vertex="1">
          <mxGeometry x="970" y="750" width="260" height="20" as="geometry" />
        </mxCell>
        <mxCell id="Wy1gnbVzSQiRrtNqNRIT-13" value="" style="rounded=0;whiteSpace=wrap;html=1;fillColor=#f5f5f5;fontColor=#333333;strokeColor=#666666;" parent="1" vertex="1">
          <mxGeometry x="970" y="780" width="260" height="20" as="geometry" />
        </mxCell>
        <mxCell id="Wy1gnbVzSQiRrtNqNRIT-16" value="Validate" style="rounded=0;whiteSpace=wrap;html=1;fillColor=#ffe6cc;strokeColor=#d79b00;" parent="1" vertex="1">
          <mxGeometry x="1020" y="690" width="50" height="20" as="geometry" />
        </mxCell>
        <mxCell id="Wy1gnbVzSQiRrtNqNRIT-17" value="Validate" style="rounded=0;whiteSpace=wrap;html=1;fillColor=#ffe6cc;strokeColor=#d79b00;" parent="1" vertex="1">
          <mxGeometry x="1070" y="720" width="50" height="20" as="geometry" />
        </mxCell>
        <mxCell id="Wy1gnbVzSQiRrtNqNRIT-18" value="Validate" style="rounded=0;whiteSpace=wrap;html=1;fillColor=#ffe6cc;strokeColor=#d79b00;" parent="1" vertex="1">
          <mxGeometry x="1180" y="780" width="50" height="20" as="geometry" />
        </mxCell>
        <mxCell id="Wy1gnbVzSQiRrtNqNRIT-19" value="Validate" style="rounded=0;whiteSpace=wrap;html=1;fillColor=#ffe6cc;strokeColor=#d79b00;" parent="1" vertex="1">
          <mxGeometry x="1120" y="750" width="60" height="20" as="geometry" />
        </mxCell>
        <mxCell id="Wy1gnbVzSQiRrtNqNRIT-20" value="Fold 1" style="text;html=1;align=center;verticalAlign=middle;whiteSpace=wrap;rounded=0;" parent="1" vertex="1">
          <mxGeometry x="920" y="655" width="60" height="30" as="geometry" />
        </mxCell>
        <mxCell id="Wy1gnbVzSQiRrtNqNRIT-21" value="Fold 2" style="text;html=1;align=center;verticalAlign=middle;whiteSpace=wrap;rounded=0;" parent="1" vertex="1">
          <mxGeometry x="920" y="685" width="60" height="30" as="geometry" />
        </mxCell>
        <mxCell id="Wy1gnbVzSQiRrtNqNRIT-22" value="Fold 3" style="text;html=1;align=center;verticalAlign=middle;whiteSpace=wrap;rounded=0;" parent="1" vertex="1">
          <mxGeometry x="920" y="715" width="60" height="30" as="geometry" />
        </mxCell>
        <mxCell id="Wy1gnbVzSQiRrtNqNRIT-23" value="Fold 4" style="text;html=1;align=center;verticalAlign=middle;whiteSpace=wrap;rounded=0;" parent="1" vertex="1">
          <mxGeometry x="920" y="745" width="60" height="30" as="geometry" />
        </mxCell>
        <mxCell id="Wy1gnbVzSQiRrtNqNRIT-24" value="Fold 5" style="text;html=1;align=center;verticalAlign=middle;whiteSpace=wrap;rounded=0;" parent="1" vertex="1">
          <mxGeometry x="920" y="775" width="60" height="30" as="geometry" />
        </mxCell>
        <mxCell id="Wy1gnbVzSQiRrtNqNRIT-25" value="1/6 Annotated Data" style="text;html=1;align=center;verticalAlign=middle;whiteSpace=wrap;rounded=0;" parent="1" vertex="1">
          <mxGeometry x="1190" y="590" width="150" height="30" as="geometry" />
        </mxCell>
        <mxCell id="Wy1gnbVzSQiRrtNqNRIT-26" value="5/6 Annotated Data" style="text;html=1;align=center;verticalAlign=middle;whiteSpace=wrap;rounded=0;" parent="1" vertex="1">
          <mxGeometry x="910" y="590" width="150" height="30" as="geometry" />
        </mxCell>
        <mxCell id="Wy1gnbVzSQiRrtNqNRIT-27" value="" style="shape=flexArrow;endArrow=classic;html=1;rounded=0;strokeColor=light-dark(#aaaaaa, #ededed);" parent="1" edge="1">
          <mxGeometry width="50" height="50" relative="1" as="geometry">
            <mxPoint x="1074.58" y="595" as="sourcePoint" />
            <mxPoint x="1074.58" y="625" as="targetPoint" />
          </mxGeometry>
        </mxCell>
        <mxCell id="Wy1gnbVzSQiRrtNqNRIT-29" value="Stratified 5 Fold Cross Validation" style="text;html=1;align=center;verticalAlign=middle;whiteSpace=wrap;rounded=0;" parent="1" vertex="1">
          <mxGeometry x="940" y="625" width="270" height="30" as="geometry" />
        </mxCell>
        <mxCell id="Wy1gnbVzSQiRrtNqNRIT-31" value="" style="endArrow=none;dashed=1;html=1;dashPattern=1 3;strokeWidth=2;rounded=0;" parent="1" edge="1">
          <mxGeometry width="50" height="50" relative="1" as="geometry">
            <mxPoint x="930" y="650" as="sourcePoint" />
            <mxPoint x="1240" y="650" as="targetPoint" />
          </mxGeometry>
        </mxCell>
        <mxCell id="Wy1gnbVzSQiRrtNqNRIT-32" value="" style="shape=flexArrow;endArrow=classic;html=1;rounded=0;strokeColor=light-dark(#aaaaaa, #ededed);" parent="1" edge="1">
          <mxGeometry width="50" height="50" relative="1" as="geometry">
            <mxPoint x="1074.58" y="805" as="sourcePoint" />
            <mxPoint x="1074.58" y="835" as="targetPoint" />
          </mxGeometry>
        </mxCell>
        <mxCell id="Wy1gnbVzSQiRrtNqNRIT-34" value="Choose the best parameters based on the average validation binary F1 score across 5 folds and 3 seeds" style="text;html=1;align=center;verticalAlign=middle;whiteSpace=wrap;rounded=0;" parent="1" vertex="1">
          <mxGeometry x="970" y="820" width="260" height="70" as="geometry" />
        </mxCell>
        <mxCell id="Wy1gnbVzSQiRrtNqNRIT-35" value="" style="shape=flexArrow;endArrow=classic;html=1;rounded=0;strokeColor=light-dark(#aaaaaa, #ededed);" parent="1" edge="1">
          <mxGeometry width="50" height="50" relative="1" as="geometry">
            <mxPoint x="1470" y="700" as="sourcePoint" />
            <mxPoint x="1470" y="730" as="targetPoint" />
          </mxGeometry>
        </mxCell>
        <mxCell id="Wy1gnbVzSQiRrtNqNRIT-36" value="BEST PARAMS" style="rounded=1;whiteSpace=wrap;html=1;" parent="1" vertex="1">
          <mxGeometry x="1015" y="920" width="120" height="60" as="geometry" />
        </mxCell>
        <mxCell id="Wy1gnbVzSQiRrtNqNRIT-37" value="" style="shape=flexArrow;endArrow=classic;html=1;rounded=0;strokeColor=light-dark(#aaaaaa, #ededed);" parent="1" edge="1">
          <mxGeometry width="50" height="50" relative="1" as="geometry">
            <mxPoint x="1160" y="960" as="sourcePoint" />
            <mxPoint x="1270" y="630" as="targetPoint" />
            <Array as="points">
              <mxPoint x="1270" y="960" />
            </Array>
          </mxGeometry>
        </mxCell>
        <mxCell id="Wy1gnbVzSQiRrtNqNRIT-38" value="Use BEST PARAMS on the Test Data" style="text;html=1;align=center;verticalAlign=middle;whiteSpace=wrap;rounded=0;" parent="1" vertex="1">
          <mxGeometry x="1309" y="792" width="80" height="30" as="geometry" />
        </mxCell>
        <mxCell id="Wy1gnbVzSQiRrtNqNRIT-40" value="" style="shape=flexArrow;endArrow=classic;html=1;rounded=0;strokeColor=light-dark(#aaaaaa, #ededed);" parent="1" edge="1">
          <mxGeometry width="50" height="50" relative="1" as="geometry">
            <mxPoint x="1325" y="559.5" as="sourcePoint" />
            <mxPoint x="1365" y="559.5" as="targetPoint" />
          </mxGeometry>
        </mxCell>
        <mxCell id="Wy1gnbVzSQiRrtNqNRIT-41" value="Report performance scores averaged across 3 seeds &amp;nbsp;" style="text;html=1;align=center;verticalAlign=middle;whiteSpace=wrap;rounded=0;" parent="1" vertex="1">
          <mxGeometry x="1415" y="548" width="160" height="30" as="geometry" />
        </mxCell>
        <mxCell id="Wy1gnbVzSQiRrtNqNRIT-42" value="BEST MODEL" style="rounded=1;whiteSpace=wrap;html=1;" parent="1" vertex="1">
          <mxGeometry x="1415" y="740" width="120" height="60" as="geometry" />
        </mxCell>
        <mxCell id="Wy1gnbVzSQiRrtNqNRIT-44" value="Choose best models based on the average test binary F1 score across 3 seeds&amp;nbsp;" style="text;html=1;align=center;verticalAlign=middle;whiteSpace=wrap;rounded=0;" parent="1" vertex="1">
          <mxGeometry x="1415" y="651" width="160" height="30" as="geometry" />
        </mxCell>
        <mxCell id="Wy1gnbVzSQiRrtNqNRIT-46" value="" style="shape=flexArrow;endArrow=classic;html=1;rounded=0;strokeColor=light-dark(#aaaaaa, #ededed);" parent="1" edge="1">
          <mxGeometry width="50" height="50" relative="1" as="geometry">
            <mxPoint x="1074.5" y="882" as="sourcePoint" />
            <mxPoint x="1074.5" y="912" as="targetPoint" />
          </mxGeometry>
        </mxCell>
        <mxCell id="Wy1gnbVzSQiRrtNqNRIT-47" value="" style="shape=flexArrow;endArrow=classic;html=1;rounded=0;strokeColor=light-dark(#aaaaaa, #ededed);" parent="1" edge="1">
          <mxGeometry width="50" height="50" relative="1" as="geometry">
            <mxPoint x="1470" y="600" as="sourcePoint" />
            <mxPoint x="1470" y="630" as="targetPoint" />
          </mxGeometry>
        </mxCell>
        <mxCell id="Wy1gnbVzSQiRrtNqNRIT-48" value="" style="shape=flexArrow;endArrow=classic;html=1;rounded=0;strokeColor=light-dark(#aaaaaa, #ededed);" parent="1" edge="1">
          <mxGeometry width="50" height="50" relative="1" as="geometry">
            <mxPoint x="1570" y="780" as="sourcePoint" />
            <mxPoint x="1640" y="490" as="targetPoint" />
            <Array as="points">
              <mxPoint x="1640" y="780" />
            </Array>
          </mxGeometry>
        </mxCell>
        <mxCell id="Wy1gnbVzSQiRrtNqNRIT-49" value="Use BEST MODELS to predict labels on the Not Annotated Data" style="text;html=1;align=center;verticalAlign=middle;whiteSpace=wrap;rounded=0;" parent="1" vertex="1">
          <mxGeometry x="1650" y="655" width="80" height="30" as="geometry" />
        </mxCell>
        <mxCell id="Wy1gnbVzSQiRrtNqNRIT-51" value="1" style="ellipse;whiteSpace=wrap;html=1;aspect=fixed;fillColor=#647687;fontColor=#ffffff;strokeColor=#314354;" parent="1" vertex="1">
          <mxGeometry x="950" y="480" width="30" height="30" as="geometry" />
        </mxCell>
        <mxCell id="Wy1gnbVzSQiRrtNqNRIT-52" value="Train/Validation/Test split" style="text;html=1;align=center;verticalAlign=middle;whiteSpace=wrap;rounded=0;" parent="1" vertex="1">
          <mxGeometry x="980" y="480" width="150" height="30" as="geometry" />
        </mxCell>
        <mxCell id="Wy1gnbVzSQiRrtNqNRIT-53" value="" style="shape=flexArrow;endArrow=classic;html=1;rounded=0;strokeColor=light-dark(#aaaaaa, #ededed);" parent="1" edge="1">
          <mxGeometry width="50" height="50" relative="1" as="geometry">
            <mxPoint x="1139.5" y="480" as="sourcePoint" />
            <mxPoint x="1139.5" y="510" as="targetPoint" />
          </mxGeometry>
        </mxCell>
        <mxCell id="Wy1gnbVzSQiRrtNqNRIT-54" value="2" style="ellipse;whiteSpace=wrap;html=1;aspect=fixed;fillColor=#647687;fontColor=#ffffff;strokeColor=#314354;" parent="1" vertex="1">
          <mxGeometry x="950" y="620" width="30" height="30" as="geometry" />
        </mxCell>
        <mxCell id="Wy1gnbVzSQiRrtNqNRIT-55" value="3" style="ellipse;whiteSpace=wrap;html=1;aspect=fixed;fillColor=#647687;fontColor=#ffffff;strokeColor=#314354;" parent="1" vertex="1">
          <mxGeometry x="950" y="830" width="30" height="30" as="geometry" />
        </mxCell>
        <mxCell id="Wy1gnbVzSQiRrtNqNRIT-56" value="4" style="ellipse;whiteSpace=wrap;html=1;aspect=fixed;fillColor=#647687;fontColor=#ffffff;strokeColor=#314354;" parent="1" vertex="1">
          <mxGeometry x="1280" y="790" width="30" height="30" as="geometry" />
        </mxCell>
        <mxCell id="Wy1gnbVzSQiRrtNqNRIT-58" value="5" style="ellipse;whiteSpace=wrap;html=1;aspect=fixed;fillColor=#647687;fontColor=#ffffff;strokeColor=#314354;" parent="1" vertex="1">
          <mxGeometry x="1385" y="545" width="30" height="30" as="geometry" />
        </mxCell>
        <mxCell id="Wy1gnbVzSQiRrtNqNRIT-59" value="6" style="ellipse;whiteSpace=wrap;html=1;aspect=fixed;fillColor=#647687;fontColor=#ffffff;strokeColor=#314354;" parent="1" vertex="1">
          <mxGeometry x="1385" y="646" width="30" height="30" as="geometry" />
        </mxCell>
        <mxCell id="Wy1gnbVzSQiRrtNqNRIT-61" value="7" style="ellipse;whiteSpace=wrap;html=1;aspect=fixed;fillColor=#647687;fontColor=#ffffff;strokeColor=#314354;" parent="1" vertex="1">
          <mxGeometry x="1660" y="595" width="30" height="30" as="geometry" />
        </mxCell>
        <mxCell id="KJEaABMl4YH4yPC1yJ6U-1" value="Step 1: Annotation" style="rounded=1;whiteSpace=wrap;html=1;" vertex="1" parent="1">
          <mxGeometry x="20" y="10" width="700" height="60" as="geometry" />
        </mxCell>
        <mxCell id="KJEaABMl4YH4yPC1yJ6U-7" value="Civic Areas" style="rounded=0;whiteSpace=wrap;html=1;fillColor=#e1d5e7;strokeColor=#9673a6;" vertex="1" parent="1">
          <mxGeometry x="40" y="140" width="120" height="60" as="geometry" />
        </mxCell>
        <mxCell id="KJEaABMl4YH4yPC1yJ6U-8" value="Type of comment" style="rounded=0;whiteSpace=wrap;html=1;fillColor=#ffe6cc;strokeColor=#d79b00;" vertex="1" parent="1">
          <mxGeometry x="40" y="80" width="120" height="60" as="geometry" />
        </mxCell>
        <mxCell id="KJEaABMl4YH4yPC1yJ6U-9" value="Social Issues" style="rounded=0;whiteSpace=wrap;html=1;fillColor=#f8cecc;strokeColor=#b85450;" vertex="1" parent="1">
          <mxGeometry x="40" y="200" width="120" height="60" as="geometry" />
        </mxCell>
        <mxCell id="KJEaABMl4YH4yPC1yJ6U-10" value="16 specific social issues" style="rounded=0;whiteSpace=wrap;html=1;fillColor=#f8cecc;strokeColor=#b85450;" vertex="1" parent="1">
          <mxGeometry x="160" y="200" width="280" height="20" as="geometry" />
        </mxCell>
        <mxCell id="KJEaABMl4YH4yPC1yJ6U-11" value="Other social issues" style="rounded=0;whiteSpace=wrap;html=1;fillColor=#f8cecc;strokeColor=#b85450;" vertex="1" parent="1">
          <mxGeometry x="160" y="220" width="280" height="20" as="geometry" />
        </mxCell>
        <mxCell id="KJEaABMl4YH4yPC1yJ6U-12" value="No social Issues" style="rounded=0;whiteSpace=wrap;html=1;fillColor=#f8cecc;strokeColor=#b85450;" vertex="1" parent="1">
          <mxGeometry x="160" y="240" width="280" height="20" as="geometry" />
        </mxCell>
        <mxCell id="KJEaABMl4YH4yPC1yJ6U-13" value="14 specific civic areas" style="rounded=0;whiteSpace=wrap;html=1;fillColor=#e1d5e7;strokeColor=#9673a6;" vertex="1" parent="1">
          <mxGeometry x="160" y="140" width="280" height="20" as="geometry" />
        </mxCell>
        <mxCell id="KJEaABMl4YH4yPC1yJ6U-14" value="Other civic areas" style="rounded=0;whiteSpace=wrap;html=1;fillColor=#e1d5e7;strokeColor=#9673a6;" vertex="1" parent="1">
          <mxGeometry x="160" y="160" width="280" height="20" as="geometry" />
        </mxCell>
        <mxCell id="KJEaABMl4YH4yPC1yJ6U-15" value="No civic areas" style="rounded=0;whiteSpace=wrap;html=1;fillColor=#e1d5e7;strokeColor=#9673a6;" vertex="1" parent="1">
          <mxGeometry x="160" y="180" width="280" height="20" as="geometry" />
        </mxCell>
        <mxCell id="KJEaABMl4YH4yPC1yJ6U-18" value="Call to Attention or Action" style="rounded=0;whiteSpace=wrap;html=1;fillColor=#ffe6cc;strokeColor=#d79b00;" vertex="1" parent="1">
          <mxGeometry x="160" y="80" width="280" height="30" as="geometry" />
        </mxCell>
        <mxCell id="KJEaABMl4YH4yPC1yJ6U-22" style="edgeStyle=orthogonalEdgeStyle;rounded=0;orthogonalLoop=1;jettySize=auto;html=1;exitX=1;exitY=1;exitDx=0;exitDy=0;entryX=1;entryY=0;entryDx=0;entryDy=0;endArrow=none;endFill=0;" edge="1" parent="1" source="KJEaABMl4YH4yPC1yJ6U-20" target="KJEaABMl4YH4yPC1yJ6U-10">
          <mxGeometry relative="1" as="geometry">
            <Array as="points">
              <mxPoint x="480" y="140" />
              <mxPoint x="480" y="200" />
            </Array>
          </mxGeometry>
        </mxCell>
        <mxCell id="KJEaABMl4YH4yPC1yJ6U-23" value="Determine Top 10 Civic Areas" style="edgeLabel;html=1;align=center;verticalAlign=middle;resizable=0;points=[];" vertex="1" connectable="0" parent="KJEaABMl4YH4yPC1yJ6U-22">
          <mxGeometry x="-0.0314" relative="1" as="geometry">
            <mxPoint x="60" y="2" as="offset" />
          </mxGeometry>
        </mxCell>
        <mxCell id="KJEaABMl4YH4yPC1yJ6U-20" value="Announcements" style="rounded=0;whiteSpace=wrap;html=1;fillColor=#ffe6cc;strokeColor=#d79b00;" vertex="1" parent="1">
          <mxGeometry x="160" y="110" width="280" height="30" as="geometry" />
        </mxCell>
        <mxCell id="KJEaABMl4YH4yPC1yJ6U-25" style="edgeStyle=orthogonalEdgeStyle;rounded=0;orthogonalLoop=1;jettySize=auto;html=1;exitX=1;exitY=1;exitDx=0;exitDy=0;entryX=1;entryY=0;entryDx=0;entryDy=0;endArrow=none;endFill=0;" edge="1" parent="1">
          <mxGeometry relative="1" as="geometry">
            <mxPoint x="440" y="200" as="sourcePoint" />
            <mxPoint x="440" y="260" as="targetPoint" />
            <Array as="points">
              <mxPoint x="480" y="200" />
              <mxPoint x="480" y="260" />
            </Array>
          </mxGeometry>
        </mxCell>
        <mxCell id="KJEaABMl4YH4yPC1yJ6U-26" value="Determine Top 10 Social Issues" style="edgeLabel;html=1;align=center;verticalAlign=middle;resizable=0;points=[];" vertex="1" connectable="0" parent="KJEaABMl4YH4yPC1yJ6U-25">
          <mxGeometry x="-0.0314" relative="1" as="geometry">
            <mxPoint x="60" y="2" as="offset" />
          </mxGeometry>
        </mxCell>
        <mxCell id="KJEaABMl4YH4yPC1yJ6U-27" value="Step 2: Machine learning - Text classification" style="rounded=1;whiteSpace=wrap;html=1;" vertex="1" parent="1">
          <mxGeometry x="20" y="290" width="700" height="60" as="geometry" />
        </mxCell>
        <mxCell id="KJEaABMl4YH4yPC1yJ6U-28" value="C&lt;font style=&quot;font-size: 10px;&quot;&gt;ALL&lt;/font&gt;T&lt;font style=&quot;font-size: 10px;&quot;&gt;O&lt;/font&gt;A&lt;font style=&quot;font-size: 10px;&quot;&gt;TTENTION&lt;/font&gt;/A&lt;font style=&quot;font-size: 10px;&quot;&gt;CTION&lt;/font&gt;&lt;font&gt; (binary target)&lt;/font&gt;" style="rounded=0;whiteSpace=wrap;html=1;fillColor=#ffe6cc;strokeColor=#d79b00;" vertex="1" parent="1">
          <mxGeometry x="40" y="360" width="400" height="30" as="geometry" />
        </mxCell>
        <mxCell id="KJEaABMl4YH4yPC1yJ6U-29" value="Civic Areas" style="rounded=0;whiteSpace=wrap;html=1;fillColor=#e1d5e7;strokeColor=#9673a6;" vertex="1" parent="1">
          <mxGeometry x="40" y="390" width="120" height="60" as="geometry" />
        </mxCell>
        <mxCell id="KJEaABMl4YH4yPC1yJ6U-30" value="Top 10 civic areas (10 binary targets)" style="rounded=0;whiteSpace=wrap;html=1;fillColor=#e1d5e7;strokeColor=#9673a6;" vertex="1" parent="1">
          <mxGeometry x="160" y="390" width="280" height="30" as="geometry" />
        </mxCell>
        <mxCell id="KJEaABMl4YH4yPC1yJ6U-31" value="C&lt;font style=&quot;font-size: 10px;&quot;&gt;IVIC&lt;/font&gt;&lt;font&gt; (binary target&lt;/font&gt;&lt;font style=&quot;font-size: 10px;&quot;&gt;)&lt;/font&gt;" style="rounded=0;whiteSpace=wrap;html=1;fillColor=#e1d5e7;strokeColor=#9673a6;" vertex="1" parent="1">
          <mxGeometry x="160" y="420" width="280" height="30" as="geometry" />
        </mxCell>
        <mxCell id="KJEaABMl4YH4yPC1yJ6U-33" value="" style="shape=flexArrow;endArrow=classic;html=1;rounded=0;strokeColor=light-dark(#aaaaaa, #ededed);" edge="1" parent="1">
          <mxGeometry width="50" height="50" relative="1" as="geometry">
            <mxPoint x="680" y="80" as="sourcePoint" />
            <mxPoint x="680" y="280" as="targetPoint" />
          </mxGeometry>
        </mxCell>
        <mxCell id="KJEaABMl4YH4yPC1yJ6U-35" style="edgeStyle=orthogonalEdgeStyle;rounded=0;orthogonalLoop=1;jettySize=auto;html=1;exitX=1;exitY=1;exitDx=0;exitDy=0;entryX=1;entryY=0;entryDx=0;entryDy=0;endArrow=none;endFill=0;" edge="1" parent="1">
          <mxGeometry relative="1" as="geometry">
            <mxPoint x="440" y="390" as="sourcePoint" />
            <mxPoint x="440" y="450" as="targetPoint" />
            <Array as="points">
              <mxPoint x="480" y="390" />
              <mxPoint x="480" y="450" />
            </Array>
          </mxGeometry>
        </mxCell>
        <mxCell id="KJEaABMl4YH4yPC1yJ6U-36" value="If C&lt;font style=&quot;font-size: 10px;&quot;&gt;IVIC&lt;/font&gt; = 1 &amp;amp; Not Top 10 civic areas:&amp;nbsp;&lt;div&gt;&lt;span style=&quot;white-space: pre;&quot;&gt;&#x9;&lt;/span&gt;Other civic area = 1&lt;div&gt;If CIVIC = 0:&amp;nbsp;&lt;/div&gt;&lt;div&gt;&lt;span style=&quot;white-space: pre;&quot;&gt;&#x9;&lt;/span&gt;No civic area = 1&lt;/div&gt;&lt;/div&gt;" style="edgeLabel;html=1;align=left;verticalAlign=middle;resizable=0;points=[];" vertex="1" connectable="0" parent="KJEaABMl4YH4yPC1yJ6U-35">
          <mxGeometry x="-0.0314" relative="1" as="geometry">
            <mxPoint x="-10" y="2" as="offset" />
          </mxGeometry>
        </mxCell>
        <mxCell id="KJEaABMl4YH4yPC1yJ6U-37" value="Social Issues" style="rounded=0;whiteSpace=wrap;html=1;fillColor=#f8cecc;strokeColor=#b85450;" vertex="1" parent="1">
          <mxGeometry x="40" y="450" width="120" height="60" as="geometry" />
        </mxCell>
        <mxCell id="KJEaABMl4YH4yPC1yJ6U-38" value="Top 10 social issues (10 binary targets)" style="rounded=0;whiteSpace=wrap;html=1;fillColor=#f8cecc;strokeColor=#b85450;" vertex="1" parent="1">
          <mxGeometry x="160" y="450" width="280" height="30" as="geometry" />
        </mxCell>
        <mxCell id="KJEaABMl4YH4yPC1yJ6U-39" value="&lt;font&gt;S&lt;font size=&quot;1&quot;&gt;OCIAL&lt;/font&gt;&lt;/font&gt;&lt;font&gt;&amp;nbsp;(binary target&lt;/font&gt;&lt;font style=&quot;font-size: 10px;&quot;&gt;)&lt;/font&gt;" style="rounded=0;whiteSpace=wrap;html=1;fillColor=#f8cecc;strokeColor=#b85450;" vertex="1" parent="1">
          <mxGeometry x="160" y="480" width="280" height="30" as="geometry" />
        </mxCell>
        <mxCell id="KJEaABMl4YH4yPC1yJ6U-40" style="edgeStyle=orthogonalEdgeStyle;rounded=0;orthogonalLoop=1;jettySize=auto;html=1;exitX=1;exitY=1;exitDx=0;exitDy=0;entryX=1;entryY=0;entryDx=0;entryDy=0;endArrow=none;endFill=0;fillColor=#f8cecc;strokeColor=light-dark(#000000, #d7817e);" edge="1" parent="1">
          <mxGeometry relative="1" as="geometry">
            <mxPoint x="440" y="450" as="sourcePoint" />
            <mxPoint x="440" y="510" as="targetPoint" />
            <Array as="points">
              <mxPoint x="480" y="450" />
              <mxPoint x="480" y="510" />
            </Array>
          </mxGeometry>
        </mxCell>
        <mxCell id="KJEaABMl4YH4yPC1yJ6U-41" value="If S&lt;font style=&quot;font-size: 10px;&quot;&gt;OCIAL&lt;/font&gt;&amp;nbsp;= 1 &amp;amp; Not Top 10 social issues:&amp;nbsp;&lt;div&gt;&lt;span style=&quot;white-space: pre;&quot;&gt;&#x9;&lt;/span&gt;Other social issue = 1&lt;div&gt;If S&lt;font style=&quot;font-size: 10px;&quot;&gt;OCIAL&lt;/font&gt; = 0:&amp;nbsp;&lt;/div&gt;&lt;div&gt;&lt;span style=&quot;white-space: pre;&quot;&gt;&#x9;&lt;/span&gt;No social issue = 1&lt;/div&gt;&lt;/div&gt;" style="edgeLabel;html=1;align=left;verticalAlign=middle;resizable=0;points=[];" vertex="1" connectable="0" parent="KJEaABMl4YH4yPC1yJ6U-40">
          <mxGeometry x="-0.0314" relative="1" as="geometry">
            <mxPoint x="-10" y="2" as="offset" />
          </mxGeometry>
        </mxCell>
        <mxCell id="KJEaABMl4YH4yPC1yJ6U-42" value="Step 3: Machine learning - Text classification&lt;div&gt;&lt;br&gt;&lt;/div&gt;&lt;div&gt;In this section, we restrict our attention to data with C&lt;font style=&quot;font-size: 10px;&quot;&gt;ALL&lt;/font&gt;T&lt;font style=&quot;font-size: 10px;&quot;&gt;O&lt;/font&gt;A&lt;font style=&quot;font-size: 10px;&quot;&gt;TTENTION&lt;/font&gt;/A&lt;font style=&quot;font-size: 10px;&quot;&gt;CTION&lt;/font&gt;&amp;nbsp;= 1&amp;nbsp;&lt;/div&gt;" style="rounded=1;whiteSpace=wrap;html=1;" vertex="1" parent="1">
          <mxGeometry x="20" y="535" width="700" height="60" as="geometry" />
        </mxCell>
        <mxCell id="KJEaABMl4YH4yPC1yJ6U-43" value="" style="shape=flexArrow;endArrow=classic;html=1;rounded=0;strokeColor=light-dark(#aaaaaa, #ededed);" edge="1" parent="1">
          <mxGeometry width="50" height="50" relative="1" as="geometry">
            <mxPoint x="690" y="360" as="sourcePoint" />
            <mxPoint x="690" y="530" as="targetPoint" />
          </mxGeometry>
        </mxCell>
        <mxCell id="KJEaABMl4YH4yPC1yJ6U-44" value="" style="shape=flexArrow;endArrow=classic;html=1;rounded=0;strokeColor=light-dark(#aaaaaa, #ededed);" edge="1" parent="1">
          <mxGeometry width="50" height="50" relative="1" as="geometry">
            <mxPoint x="730" y="319.58" as="sourcePoint" />
            <mxPoint x="940" y="319.58" as="targetPoint" />
          </mxGeometry>
        </mxCell>
        <mxCell id="KJEaABMl4YH4yPC1yJ6U-45" value="Machine learning pipeline" style="rounded=1;whiteSpace=wrap;html=1;" vertex="1" parent="1">
          <mxGeometry x="950" y="290" width="710" height="60" as="geometry" />
        </mxCell>
        <mxCell id="KJEaABMl4YH4yPC1yJ6U-46" value="Civic Areas" style="rounded=0;whiteSpace=wrap;html=1;fillColor=#e1d5e7;strokeColor=#9673a6;" vertex="1" parent="1">
          <mxGeometry x="40" y="610" width="120" height="60" as="geometry" />
        </mxCell>
        <mxCell id="KJEaABMl4YH4yPC1yJ6U-47" value="Top 10 civic areas" style="rounded=0;whiteSpace=wrap;html=1;fillColor=#e1d5e7;strokeColor=#9673a6;" vertex="1" parent="1">
          <mxGeometry x="160" y="610" width="280" height="20" as="geometry" />
        </mxCell>
        <mxCell id="KJEaABMl4YH4yPC1yJ6U-48" value="Social Issues" style="rounded=0;whiteSpace=wrap;html=1;fillColor=#f8cecc;strokeColor=#b85450;" vertex="1" parent="1">
          <mxGeometry x="40" y="670" width="120" height="60" as="geometry" />
        </mxCell>
        <mxCell id="KJEaABMl4YH4yPC1yJ6U-49" value="Top 10 social issues" style="rounded=0;whiteSpace=wrap;html=1;fillColor=#f8cecc;strokeColor=#b85450;" vertex="1" parent="1">
          <mxGeometry x="160" y="670" width="280" height="20" as="geometry" />
        </mxCell>
        <mxCell id="KJEaABMl4YH4yPC1yJ6U-50" value="Other civic area" style="rounded=0;whiteSpace=wrap;html=1;fillColor=#e1d5e7;strokeColor=#9673a6;" vertex="1" parent="1">
          <mxGeometry x="160" y="630" width="280" height="20" as="geometry" />
        </mxCell>
        <mxCell id="KJEaABMl4YH4yPC1yJ6U-51" value="No civic area" style="rounded=0;whiteSpace=wrap;html=1;fillColor=#e1d5e7;strokeColor=#9673a6;" vertex="1" parent="1">
          <mxGeometry x="160" y="650" width="280" height="20" as="geometry" />
        </mxCell>
        <mxCell id="KJEaABMl4YH4yPC1yJ6U-52" value="Other social issue" style="rounded=0;whiteSpace=wrap;html=1;fillColor=#f8cecc;strokeColor=#b85450;" vertex="1" parent="1">
          <mxGeometry x="160" y="690" width="280" height="20" as="geometry" />
        </mxCell>
        <mxCell id="KJEaABMl4YH4yPC1yJ6U-53" value="No social issue" style="rounded=0;whiteSpace=wrap;html=1;fillColor=#f8cecc;strokeColor=#b85450;" vertex="1" parent="1">
          <mxGeometry x="160" y="710" width="280" height="20" as="geometry" />
        </mxCell>
      </root>
    </mxGraphModel>
  </diagram>
</mxfile>
